PathFileType	4	(X/Y/Z)	D:\TRACE\v60_Jaco2_6-2-23\ArmBodyNoDRS1-v60.trc
DataRate	CameraRate	NumFrames	NumMarkers	Units	OrigDataRate	OrigDataStartFrame	OrigNumFrames
100.00	100.00	      13	9	mm	100.00	2661	      5320
Frame#	Time	front left toe			Front right toe			aft left toe			aft right toe			Arm			FL body			FR body			AL Body			AR Body			
		X1	Y1	Z1	X2	Y2	Z2	X3	Y3	Z3	X4	Y4	Z4	X5	Y5	Z5	X6	Y6	Z6	X7	Y7	Z7	X8	Y8	Z8	X9	Y9	Z9	

2661	26.600	-172.71335	112.49049	-316.17084	212.39316	17.57270	-320.48636	-167.66402	12.26030	300.51868	191.99205	105.20480	305.96103	32.90581	1115.56140	-702.33563	-58.29219	574.79944	-459.11646	100.53254	578.61591	-458.69223	-54.15265	569.16718	487.04300	100.56152	559.79822	487.63309	
2662	26.610	-172.55885	123.11754	-318.06573	212.45819	17.41060	-320.49741	-167.63460	12.41549	300.38113	192.11073	115.50347	304.21918	33.66962	1115.04944	-703.10242	-58.35395	574.91528	-459.45816	100.84815	578.58099	-459.06424	-54.48481	569.05957	486.29965	101.70901	559.44788	487.58719	
2663	26.620	-172.65736	132.71555	-319.57660	212.60291	17.37585	-320.46054	-167.90840	12.53566	300.30771	192.17488	124.77979	302.46973	34.52867	1114.83606	-704.25427	-58.20342	574.54999	-459.77136	101.08475	578.31573	-459.17090	-54.40651	568.79938	485.75327	101.29862	559.35248	487.16217	
2664	26.630	-172.74846	140.81830	-320.86847	212.78105	17.38000	-320.38669	-167.92534	12.39104	300.30664	191.96078	133.25507	301.55844	34.90320	1114.69812	-704.78186	-57.91172	574.07959	-460.04462	100.83488	577.64496	-458.96262	-54.80563	568.95374	485.47403	100.91978	559.33612	486.95056	
2665	26.640	-173.20631	147.94305	-321.83212	212.72400	17.31127	-320.37329	-167.65273	12.23133	300.35727	191.76999	140.13785	300.05789	35.12090	1114.77246	-705.75623	-57.46085	573.46436	-460.26559	101.06637	576.78674	-458.84229	-55.38821	569.02057	485.21942	98.69952	559.39111	486.81497	
2666	26.650	-173.74313	152.53140	-322.38986	212.70682	17.32084	-320.26227	-168.03687	12.39639	300.36295	193.72537	145.33836	299.63574	35.36603	1114.59607	-706.83527	-57.08420	573.21014	-460.48682	101.42725	576.50146	-458.87030	-55.92526	569.09088	485.17181	97.75423	559.49414	486.93002	
2667	26.660	-174.18396	154.44301	-322.65790	212.80342	17.45506	-320.02298	-167.79817	12.26847	300.39096	194.82698	147.45802	299.40326	35.48644	1114.41443	-707.95251	-56.83794	573.12616	-460.53674	101.84403	576.39099	-458.89743	-56.46991	569.14044	485.18903	96.22611	559.81995	486.93723	
2668	26.670	-174.24883	153.92705	-322.78146	212.70486	17.44900	-320.05133	-168.16759	12.26038	300.31067	195.70352	147.02637	299.62366	35.63982	1113.94788	-709.10309	-56.73699	573.09283	-460.55841	102.11687	576.41895	-458.88928	-56.96342	569.15381	485.07745	96.45625	559.69836	486.84128	
2669	26.680	-174.15486	151.37109	-323.32736	212.80367	17.48753	-319.90814	-168.27103	12.11885	300.24927	197.39116	144.97977	300.18045	36.56539	1113.34363	-710.33514	-56.47592	572.95801	-460.60480	102.36414	576.35510	-458.84668	-57.10421	569.13879	485.15689	95.79424	559.61945	486.79309	
2670	26.690	-173.05504	147.82684	-323.85394	212.80373	17.46270	-319.92926	-168.30911	11.93569	300.36197	197.08044	140.70227	300.37509	37.13239	1112.92078	-711.36517	-56.31488	572.92694	-460.71774	102.45024	576.29584	-458.81210	-58.06556	568.89252	484.92621	95.24489	559.19232	486.61578	
2671	26.700	-172.07526	142.69321	-324.48196	212.72050	17.42896	-319.91791	-168.33754	11.73556	300.43527	196.46228	135.77988	300.14850	37.86692	1112.60815	-712.87616	-56.25703	572.89246	-460.79507	102.87817	576.58795	-459.08313	-58.57280	568.75372	485.02774	95.10683	559.27252	486.79523	
2672	26.710	-171.10155	137.22989	-325.43793	212.68089	17.45558	-319.89572	-168.30121	11.65270	300.47171	195.98572	130.09325	299.41501	38.32186	1112.40686	-714.05145	-56.01193	572.87012	-461.01968	103.17158	576.57843	-459.22726	-59.12014	568.76831	484.84357	94.83900	559.25604	486.67203	
2673	26.720	-170.52760	131.72617	-326.64923	212.90311	17.46711	-319.79855	-168.26018	11.67736	300.36420	196.08937	124.64361	298.63550	38.85423	1112.49268	-715.09967	-55.75049	572.92969	-461.30786	103.49707	576.51721	-459.43307	-59.57419	568.84729	484.42526	94.33258	559.35614	486.64145	
